<?xml version="1.0" encoding="iso-8859-1"?>
<!-- Generator: Adobe Illustrator 19.0.0, SVG Export Plug-In . SVG Version: 6.00 Build 0)  -->
<svg version="1.1" id="Layer_1" xmlns="http://www.w3.org/2000/svg" xmlns:xlink="http://www.w3.org/1999/xlink" x="0px" y="0px"
	 viewBox="0 0 512.002 512.002" style="enable-background:new 0 0 512.002 512.002;" xml:space="preserve">
<path style="fill:#C7E9F4;" d="M299.103,10.399c-4.255,1.752-5.809,6.989-3.168,10.758l40.345,57.539
	c16.296,23.234-18.857,47.946-35.18,24.667c-0.856-1.222-45.849-65.376-46.687-66.603C165.271-45.153,21.922,19.202,21.922,140.694
	c0,2.494-3.134-18.28,48.672,311.587c8.164,62.247,89.186,81.691,124.757,30.05l40.64-58.994c9.679-14.053,30.358-14.035,40.024,0
	l40.64,58.995c35.6,51.674,116.597,32.155,124.757-30.051c51.599-328.526,48.675-309.082,48.675-311.585
	C490.085,41.661,390.267-27.13,299.103,10.399z"/>
<g>
	<path style="fill:#80D0E1;" d="M122.441,279.341c1.368,10.861,10.619,18.801,21.287,18.801c12.993,0,22.955-11.378,21.34-24.172
		l-17.604-139.701c-1.482-11.772-12.238-20.124-24-18.629c-11.773,1.482-20.113,12.228-18.629,24L122.441,279.341z"/>
	<path style="fill:#80D0E1;" d="M299.103,10.399c-4.255,1.752-5.809,6.989-3.168,10.758l40.346,57.539
		c16.296,23.234-18.857,47.946-35.18,24.667l-45.098-64.315v373.757c16.514,0.001,17.787,7.302,60.653,69.53
		c35.6,51.674,116.599,32.155,124.757-30.051c51.628-328.719,48.673-309.087,48.673-311.588
		C490.085,41.661,390.267-27.13,299.103,10.399z"/>
</g>
<g>
</g>
<g>
</g>
<g>
</g>
<g>
</g>
<g>
</g>
<g>
</g>
<g>
</g>
<g>
</g>
<g>
</g>
<g>
</g>
<g>
</g>
<g>
</g>
<g>
</g>
<g>
</g>
<g>
</g>
</svg>
